<svg width="75" height="28" viewBox="0 0 75 28" fill="none" xmlns="http://www.w3.org/2000/svg">
<path fill-rule="evenodd" clip-rule="evenodd" d="M12.8084 27.0585C12.8084 27.6552 12.1038 27.9724 11.657 27.5767L0.441657 17.6431C0.293303 17.5117 0.208374 17.323 0.208374 17.1248V10.5549C0.208374 10.3528 0.296687 10.1608 0.450134 10.0292L11.6655 0.416053C12.1146 0.031126 12.8084 0.350216 12.8084 0.941692V8.84033C12.8084 9.04112 12.7212 9.23201 12.5695 9.3635L7.99003 13.3324C7.67923 13.6017 7.67041 14.081 7.97107 14.3616L12.5884 18.6712C12.7287 18.8021 12.8084 18.9854 12.8084 19.1773V27.0585ZM47.4982 16.0165C47.4982 16.6565 47.3749 17.3065 47.1282 17.9665C46.8882 18.6265 46.5215 19.2331 46.0282 19.7865C45.5415 20.3398 44.9215 20.7898 44.1682 21.1365C43.4215 21.4765 42.5349 21.6465 41.5082 21.6465C40.1415 21.6465 38.9749 21.3231 38.0082 20.6765C37.0415 20.0231 36.3015 19.1231 35.7882 17.9765C35.2815 16.8298 35.0282 15.5131 35.0282 14.0265C35.0282 12.5398 35.2815 11.2265 35.7882 10.0865C36.3015 8.94646 37.0415 8.05313 38.0082 7.40646C38.9749 6.7598 40.1415 6.43646 41.5082 6.43646C42.6482 6.43646 43.6182 6.64313 44.4182 7.05646C45.2249 7.4698 45.8682 8.00646 46.3482 8.66646C46.8349 9.32646 47.1649 10.0231 47.3382 10.7565C47.4449 11.2031 47.4982 11.6331 47.4982 12.0465H44.3882C44.3882 11.8465 44.3715 11.6531 44.3382 11.4665C44.2715 10.9798 44.1182 10.5465 43.8782 10.1665C43.6382 9.78646 43.3182 9.48646 42.9182 9.26646C42.5249 9.0398 42.0549 8.92646 41.5082 8.92646C40.8682 8.92646 40.2982 9.1098 39.7982 9.47646C39.2982 9.84313 38.9049 10.4031 38.6182 11.1565C38.3315 11.9098 38.1882 12.8665 38.1882 14.0265C38.1882 15.1931 38.3315 16.1565 38.6182 16.9165C38.9049 17.6698 39.2982 18.2331 39.7982 18.6065C40.2982 18.9731 40.8682 19.1565 41.5082 19.1565C41.9682 19.1565 42.3749 19.0731 42.7282 18.9065C43.0882 18.7398 43.3882 18.5098 43.6282 18.2165C43.8749 17.9231 44.0615 17.5865 44.1882 17.2065C44.3215 16.8265 44.3882 16.4298 44.3882 16.0165H47.4982ZM53.5298 21.6465C52.4631 21.6465 51.5231 21.4765 50.7098 21.1365C49.9031 20.7965 49.2698 20.2898 48.8098 19.6165C48.3564 18.9365 48.1298 18.0931 48.1298 17.0865V16.7965V16.4965H51.2398V16.7665V17.0265C51.2398 17.7131 51.4331 18.2398 51.8198 18.6065C52.2064 18.9731 52.7798 19.1565 53.5398 19.1565C54.3064 19.1565 54.8964 19.0365 55.3097 18.7965C55.7231 18.5498 55.9298 18.1465 55.9298 17.5865C55.9298 17.1931 55.7731 16.8465 55.4598 16.5465C55.1531 16.2465 54.7331 15.9798 54.1997 15.7465C53.6731 15.5065 53.0698 15.2831 52.3898 15.0765C51.6498 14.8431 50.9631 14.5365 50.3298 14.1565C49.6964 13.7765 49.1864 13.2931 48.7998 12.7065C48.4198 12.1198 48.2298 11.3965 48.2298 10.5365C48.2298 9.6698 48.4598 8.93313 48.9198 8.32646C49.3798 7.71313 50.0064 7.24646 50.7998 6.92646C51.5931 6.5998 52.4898 6.43646 53.4898 6.43646C54.5364 6.43646 55.4598 6.5998 56.2598 6.92646C57.0664 7.24646 57.6964 7.7298 58.1497 8.37646C58.6097 9.01646 58.8397 9.81646 58.8397 10.7765V11.0765V11.3765H55.7397V11.1465V10.9165C55.7397 10.2698 55.5597 9.77313 55.1997 9.42646C54.8464 9.0798 54.2897 8.90646 53.5298 8.90646C52.7964 8.90646 52.2264 9.0398 51.8198 9.30646C51.4198 9.57313 51.2198 9.98313 51.2198 10.5365C51.2198 10.9365 51.3631 11.2765 51.6498 11.5565C51.9431 11.8365 52.3431 12.0865 52.8498 12.3065C53.3564 12.5265 53.9331 12.7465 54.5798 12.9665C55.4598 13.2731 56.2264 13.6131 56.8797 13.9865C57.5397 14.3531 58.0498 14.8165 58.4097 15.3765C58.7697 15.9298 58.9497 16.6365 58.9497 17.4965C58.9497 18.3765 58.7231 19.1265 58.2697 19.7465C57.8164 20.3665 57.1798 20.8398 56.3598 21.1665C55.5464 21.4865 54.6031 21.6465 53.5298 21.6465ZM62.1707 21.1365C62.984 21.4765 63.924 21.6465 64.9907 21.6465C66.064 21.6465 67.0073 21.4865 67.8207 21.1665C68.6407 20.8398 69.2774 20.3665 69.7307 19.7465C70.184 19.1265 70.4107 18.3765 70.4107 17.4965C70.4107 16.6365 70.2307 15.9298 69.8707 15.3765C69.5107 14.8165 69.0007 14.3531 68.3407 13.9865C67.6873 13.6131 66.9207 13.2731 66.0407 12.9665C65.394 12.7465 64.8174 12.5265 64.3107 12.3065C63.804 12.0865 63.404 11.8365 63.1107 11.5565C62.824 11.2765 62.6807 10.9365 62.6807 10.5365C62.6807 9.98313 62.8807 9.57313 63.2807 9.30646C63.6874 9.0398 64.2574 8.90646 64.9907 8.90646C65.7507 8.90646 66.3074 9.0798 66.6607 9.42646C67.0207 9.77313 67.2007 10.2698 67.2007 10.9165V11.1465V11.3765H70.3007V11.0765V10.7765C70.3007 9.81646 70.0707 9.01646 69.6107 8.37646C69.1573 7.7298 68.5274 7.24646 67.7207 6.92646C66.9207 6.5998 65.9974 6.43646 64.9507 6.43646C63.9507 6.43646 63.054 6.5998 62.2607 6.92646C61.4674 7.24646 60.8407 7.71313 60.3807 8.32646C59.9207 8.93313 59.6907 9.6698 59.6907 10.5365C59.6907 11.3965 59.8807 12.1198 60.2607 12.7065C60.6474 13.2931 61.1574 13.7765 61.7907 14.1565C62.424 14.5365 63.1107 14.8431 63.8507 15.0765C64.5307 15.2831 65.134 15.5065 65.6607 15.7465C66.194 15.9798 66.614 16.2465 66.9207 16.5465C67.234 16.8465 67.3907 17.1931 67.3907 17.5865C67.3907 18.1465 67.184 18.5498 66.7707 18.7965C66.3574 19.0365 65.7673 19.1565 65.0007 19.1565C64.2407 19.1565 63.6674 18.9731 63.2807 18.6065C62.894 18.2398 62.7007 17.7131 62.7007 17.0265V16.7665V16.4965H59.5907V16.7965V17.0865C59.5907 18.0931 59.8174 18.9365 60.2707 19.6165C60.7307 20.2898 61.364 20.7965 62.1707 21.1365ZM73.1516 21.7065C72.6916 21.7065 72.3016 21.5465 71.9816 21.2265C71.6616 20.9065 71.5016 20.5165 71.5016 20.0565C71.5016 19.6031 71.6616 19.2165 71.9816 18.8965C72.3016 18.5765 72.6916 18.4165 73.1516 18.4165C73.605 18.4165 73.9916 18.5765 74.3116 18.8965C74.6316 19.2165 74.7916 19.6031 74.7916 20.0565C74.7916 20.5165 74.6316 20.9065 74.3116 21.2265C73.9916 21.5465 73.605 21.7065 73.1516 21.7065ZM15.7597 27.5767C15.313 27.9724 14.6084 27.6553 14.6084 27.0585V19.1773C14.6084 18.9854 14.688 18.8021 14.8283 18.6712L19.4457 14.3617C19.7463 14.081 19.7375 13.6017 19.4267 13.3324L14.8473 9.36352C14.6955 9.23203 14.6084 9.04114 14.6084 8.84035V0.941712C14.6084 0.350236 15.3021 0.0311459 15.7512 0.416073L26.9666 10.0293C27.1201 10.1608 27.2084 10.3528 27.2084 10.5549V17.1249C27.2084 17.323 27.1234 17.5117 26.9751 17.6431L15.7597 27.5767Z" fill="#FDDD35"/>
</svg>
